<?xml version="1.0" standalone="no" ?>
<!DOCTYPE svg PUBLIC "-//W3C//DTD SVG 20010904//EN" "http://www.w3.org/TR/2001/REC-SVG-20010904/DTD/svg10.dtd">
<svg
  version="1.0"
  xmlns="http://www.w3.org/2000/svg"
  width="700.000000pt"
  height="700.000000pt"
  viewBox="0 0 700.000000 700.000000"
  preserveAspectRatio="xMidYMid meet"
>
<metadata>
Created by potrace 1.14, written by Peter Selinger 2001-2017
</metadata>
<g transform="translate(0.000000,700.000000) scale(0.100000,-0.100000)" fill="#000000" stroke="none">
<path
      d="M1923 5999 c-327 -38 -595 -275 -684 -604 -32 -117 -32 -358 -1 -504
76 -349 276 -733 591 -1131 152 -193 260 -311 528 -578 l274 -272 -3 -147 -3
-146 -851 -306 c-467 -168 -856 -310 -862 -314 -9 -6 -12 -70 -12 -232 l0
-225 37 -23 c107 -67 2303 -1297 2314 -1297 8 0 750 409 1649 908 l1635 908 3
226 2 226 -47 14 c-27 8 -256 70 -510 138 l-462 124 37 32 c51 43 87 97 117
174 l25 64 0 1231 0 1232 -41 57 c-26 36 -46 55 -55 52 -10 -4 -1062 -804
-1286 -978 l-37 -29 28 84 c65 191 76 256 75 462 0 179 -2 195 -28 280 -70
227 -205 389 -411 490 -138 69 -193 80 -380 80 -153 0 -164 -2 -248 -32 -113
-40 -184 -83 -269 -162 -111 -103 -182 -227 -223 -386 -8 -32 -15 -71 -16 -85
0 -14 -11 18 -24 72 -84 343 -329 562 -667 598 -103 11 -94 11 -195 -1z m3597
-1609 c0 -533 -2 -970 -5 -970 -3 0 -23 9 -44 19 -63 33 -159 46 -228 32 -150
-30 -260 -129 -304 -273 -24 -78 -22 -159 5 -235 11 -32 12 -43 3 -43 -7 1
-158 40 -337 88 l-325 88 -3 661 -2 660 612 471 c337 259 616 471 621 471 4 1
7 -435 7 -969z m-1420 -708 l0 -537 -641 -230 c-353 -127 -645 -231 -650 -233
-5 -2 -9 28 -9 67 l0 71 31 0 c37 0 135 82 375 314 338 325 644 691 835 998
30 48 55 88 57 88 1 0 2 -242 2 -538z"
    />
</g>
</svg>
